<svg viewBox="0 0 2089 602" fill="none" xmlns="http://www.w3.org/2000/svg">
<g clip-path="url(#clip0_165_317)">
<path d="M181.999 302.069L295.068 189V245.534H408.135L295.068 330.336V415.138L181.999 302.069Z" fill="white"/>
<path d="M577.739 302.069L464.672 415.138V358.603H351.603L464.672 273.802V189L577.739 302.069Z" fill="white"/>
<path d="M797.497 401.347V203.467H845.324V287.142H847.932L913.344 203.467H969.675L899.527 291.778L970.932 401.345H913.731L864.455 323.566L845.324 347.72V401.345L797.497 401.347Z" fill="white"/>
<path d="M627.949 401.347V374.101L724.086 242.31H628.046V203.467H784.572V230.714L688.435 362.504H784.475V401.345L627.949 401.347Z" fill="white"/>
<path d="M1427.09 404.44C1413.82 404.44 1402.25 401.122 1392.4 394.487C1382.61 387.852 1375.01 378.769 1369.59 367.24C1364.18 355.709 1361.48 342.571 1361.48 327.818C1361.48 312.939 1364.22 299.702 1369.69 288.107C1375.23 276.513 1382.9 267.43 1392.69 260.861C1402.48 254.226 1413.85 250.91 1426.79 250.91C1436.71 250.91 1445.7 252.842 1453.75 256.706C1461.8 260.506 1468.44 265.886 1473.66 272.842C1478.94 279.734 1482.25 287.786 1483.61 296.998H1466.22C1464.41 288.625 1460.06 281.475 1453.17 275.548C1446.34 269.557 1437.65 266.562 1427.09 266.562C1417.62 266.562 1409.24 269.139 1401.96 274.291C1394.68 279.379 1388.98 286.498 1384.86 295.644C1380.8 304.727 1378.77 315.259 1378.77 327.24C1378.77 339.284 1380.77 349.945 1384.77 359.222C1388.76 368.434 1394.36 375.647 1401.58 380.865C1408.86 386.082 1417.36 388.691 1427.09 388.691C1433.65 388.691 1439.65 387.468 1445.06 385.02C1450.53 382.508 1455.1 378.964 1458.78 374.39C1462.51 369.817 1465.02 364.374 1466.31 358.062H1483.7C1482.41 367.016 1479.23 375.003 1474.14 382.024C1469.11 388.982 1462.58 394.455 1454.52 398.449C1446.54 402.442 1437.39 404.44 1427.09 404.44Z" fill="white"/>
<path d="M1247.79 308.592V401.347H1230.59V252.937H1247.31V276.223H1248.86C1252.33 268.623 1257.74 262.535 1265.09 257.962C1272.49 253.324 1281.64 251.004 1292.53 251.004C1302.51 251.004 1311.27 253.098 1318.81 257.284C1326.41 261.407 1332.3 267.493 1336.49 275.545C1340.74 283.597 1342.87 293.485 1342.87 305.208V401.345H1325.67V306.271C1325.67 294.097 1322.25 284.467 1315.43 277.381C1308.66 270.296 1299.58 266.752 1288.18 266.752C1280.39 266.752 1273.46 268.427 1267.41 271.777C1261.35 275.127 1256.55 279.958 1253.01 286.269C1249.53 292.517 1247.79 299.957 1247.79 308.588V308.592Z" fill="white"/>
<path d="M1113.09 457C1109.68 457 1106.49 456.679 1103.53 456.035C1100.56 455.39 1098.21 454.681 1096.47 453.91L1101.11 438.739C1106.97 440.543 1112.19 441.187 1116.76 440.672C1121.34 440.22 1125.4 438.16 1128.94 434.487C1132.48 430.881 1135.64 425.341 1138.41 417.87L1143.82 402.796L1089.23 252.937H1107.87L1151.93 378.64H1153.29L1197.34 252.937H1215.99L1153.19 424.825C1150.55 431.975 1147.3 437.934 1143.43 442.7C1139.56 447.533 1135.09 451.107 1130 453.426C1124.98 455.808 1119.34 457 1113.09 457Z" fill="white"/>
<path d="M1080.37 285.498L1064.62 289.943C1063.08 285.498 1060.89 281.472 1058.05 277.865C1055.22 274.257 1051.51 271.39 1046.94 269.265C1042.43 267.14 1036.83 266.078 1030.13 266.078C1020.08 266.078 1011.84 268.461 1005.39 273.228C998.952 277.996 995.731 284.147 995.731 291.683C995.731 298.06 997.922 303.246 1002.3 307.238C1006.75 311.167 1013.58 314.291 1022.79 316.61L1045.2 322.117C1057.63 325.144 1066.94 329.943 1073.13 336.515C1079.37 343.084 1082.5 351.33 1082.5 361.25C1082.5 369.623 1080.18 377.062 1075.54 383.568C1070.9 390.074 1064.43 395.194 1056.12 398.931C1047.88 402.604 1038.31 404.438 1027.42 404.438C1012.93 404.438 1000.98 401.185 991.578 394.679C982.172 388.11 976.15 378.64 973.51 366.273L990.032 362.215C992.157 371.04 996.312 377.707 1002.49 382.216C1008.74 386.726 1016.96 388.98 1027.13 388.98C1038.53 388.98 1047.65 386.435 1054.48 381.346C1061.31 376.194 1064.72 369.752 1064.72 362.023C1064.72 356.032 1062.72 351.007 1058.73 346.949C1054.74 342.826 1048.68 339.799 1040.56 337.866L1016.31 332.068C1003.43 328.976 993.896 324.082 987.713 317.381C981.528 310.681 978.438 302.374 978.438 292.452C978.438 284.271 980.66 277.089 985.104 270.907C989.548 264.658 995.668 259.762 1003.46 256.22C1011.26 252.677 1020.15 250.905 1030.13 250.905C1043.72 250.905 1054.57 253.998 1062.69 260.18C1070.87 266.3 1076.77 274.738 1080.37 285.494V285.498Z" fill="white"/>
</g>
<g clip-path="url(#clip1_165_317)">
<path d="M1593.08 250.244C1593.08 257.911 1597.89 262.723 1605.96 262.723H1614.61V252.204H1608.65C1606.29 252.204 1605.15 250.98 1605.15 248.696V228.062H1614.61V217.543H1605.15V207.184H1593.08V217.543H1585V228.062H1593.08V250.244Z" fill="white"/>
<path d="M1632.52 236.049L1632.51 236.053C1632.51 230.913 1635.2 227.734 1639.44 227.734C1643.68 227.734 1646.46 230.913 1646.46 236.053V262.723H1658.53V233.769C1658.53 223.738 1651.76 216.479 1642.38 216.479C1638.06 216.479 1634.56 217.947 1632.19 220.639V204H1620.44V262.718H1632.52V236.049Z" fill="white"/>
<path d="M1687.14 263.782C1695.71 263.782 1702.97 259.867 1707.21 253.015L1697.99 247.144C1695.46 251.139 1691.63 253.423 1687.14 253.423C1680.94 253.423 1676.7 249.592 1675.4 243.72H1709.08C1709.08 243.72 1709.33 242.173 1709.33 239.889C1709.33 226.514 1699.54 216.483 1686.33 216.483C1673.12 216.483 1663.25 227.087 1663.25 240.297C1663.25 253.508 1673.52 263.782 1687.14 263.782ZM1686.41 226.838C1692.04 226.838 1696.44 230.669 1697.09 235.565H1675.64C1677.11 230.346 1681.19 226.838 1686.41 226.838Z" fill="white"/>
<path d="M1610.45 355.286L1610.45 355.291C1606.12 355.291 1602.62 356.759 1600.25 359.45V356.351H1588.51V401.53H1600.58V374.86C1600.58 369.721 1603.27 366.541 1607.51 366.541C1611.75 366.541 1614.53 369.721 1614.53 374.86V401.53H1626.6V372.577C1626.6 362.546 1619.83 355.286 1610.45 355.286Z" fill="white"/>
<path d="M1654.25 355.29C1641.45 355.29 1631.17 365.893 1631.17 379.104C1631.17 392.314 1641.45 402.589 1655.07 402.589C1663.63 402.589 1670.89 398.673 1675.13 391.822L1665.91 385.95C1663.39 389.946 1659.56 392.23 1655.07 392.23C1648.87 392.23 1644.63 388.398 1643.32 382.527H1677.01C1677.01 382.527 1677.25 380.98 1677.25 378.696C1677.25 365.321 1667.46 355.29 1654.25 355.29ZM1643.57 374.377C1645.04 369.157 1649.12 365.649 1654.34 365.649C1659.96 365.649 1664.37 369.481 1665.02 374.377H1643.57Z" fill="white"/>
<path d="M1763.99 356.35L1756.48 385.792L1749.06 356.35H1736.58L1729.24 385.956L1721.66 356.35H1698.07V345.991H1685.99V356.35H1677.92V366.869H1685.99V389.051C1685.99 396.718 1690.81 401.53 1698.88 401.53H1707.52V391.011H1701.57C1699.21 391.011 1698.07 389.787 1698.07 387.503V366.869H1712.35L1721.98 401.53H1735.93L1742.86 372.825L1749.79 401.53H1763.74L1776.22 356.35H1763.99Z" fill="white"/>
<path d="M1799.73 355.29C1786.43 355.29 1775.91 365.729 1775.91 378.94C1775.91 392.15 1786.43 402.589 1799.73 402.589C1813.02 402.589 1823.54 392.15 1823.54 378.94C1823.54 365.729 1813.02 355.29 1799.73 355.29ZM1799.73 390.603C1793.37 390.603 1788.47 385.627 1788.47 378.94C1788.47 372.252 1793.36 367.277 1799.73 367.277C1806.09 367.277 1810.98 372.252 1810.98 378.94C1810.98 385.627 1806.09 390.603 1799.73 390.603Z" fill="white"/>
<path d="M1840.37 360.256V356.35H1828.63V401.529H1840.7V377.795C1840.7 371.924 1843.88 368.66 1849.91 368.66H1852.85V355.773H1850.73C1846.41 355.773 1842.9 357.241 1840.37 360.256Z" fill="white"/>
<path d="M1879.75 376.904L1898.02 356.35H1883.34L1868.34 373.968V342.815H1856.26V401.534H1868.34V379.919L1884.48 401.534H1899L1879.75 376.904Z" fill="white"/>
<path d="M1610.16 322.829C1603.96 322.829 1599.72 318.998 1598.42 313.127H1632.1C1632.1 313.127 1632.35 311.579 1632.35 309.295C1632.35 295.921 1622.56 285.89 1609.35 285.89C1596.14 285.89 1586.27 296.493 1586.27 309.703C1586.27 322.914 1596.55 333.189 1610.16 333.189C1618.73 333.189 1625.99 329.273 1630.23 322.421L1621.01 316.55C1618.48 320.546 1614.65 322.829 1610.16 322.829ZM1609.43 296.244C1615.06 296.244 1619.46 300.076 1620.11 304.972H1598.66C1600.13 299.752 1604.21 296.244 1609.43 296.244Z" fill="white"/>
<path d="M1649.35 273.411H1637.28V332.129H1649.35V273.411Z" fill="white"/>
<path d="M1688.99 332.129H1700.98V286.949H1688.99V289.397C1685.89 287.114 1681.9 285.89 1677.57 285.89C1664.77 285.89 1654.17 296.249 1654.17 309.539C1654.17 322.829 1664.77 333.189 1677.57 333.189C1681.9 333.189 1685.89 331.965 1688.99 329.681V332.129ZM1677.98 321.197C1671.62 321.197 1666.73 316.222 1666.73 309.534C1666.73 302.847 1671.62 297.872 1677.98 297.872C1684.34 297.872 1689.24 302.847 1689.24 309.534C1689.24 316.222 1684.34 321.197 1677.98 321.197Z" fill="white"/>
<path d="M1784.35 287.353C1788.59 287.353 1791.93 284.089 1791.93 279.85C1791.93 275.61 1788.59 272.346 1784.35 272.346C1780.11 272.346 1776.77 275.61 1776.77 279.85C1776.77 284.089 1780.19 287.353 1784.35 287.353Z" fill="white"/>
<path d="M1818.26 333.189C1826.82 333.189 1834.08 329.193 1838.15 322.178L1827.79 315.654C1825.92 319.078 1822.49 321.202 1818.25 321.202C1811.89 321.202 1807.16 316.147 1807.16 309.539C1807.16 302.932 1811.89 297.876 1818.25 297.876C1822.49 297.876 1825.92 299.996 1827.79 303.424L1838.15 296.901C1834.07 289.885 1826.82 285.89 1818.26 285.89C1805.12 285.89 1794.61 296.329 1794.61 309.539C1794.61 322.75 1805.12 333.189 1818.26 333.189Z" fill="white"/>
<path d="M1750.78 297.468V319.65C1750.78 327.317 1755.59 332.129 1763.66 332.129H1790.38V290.537H1778.31V321.61H1766.35C1763.99 321.61 1762.85 320.386 1762.85 318.102V297.468H1772.31V286.949H1762.85V276.59H1750.78V286.949L1720.91 286.902C1713.05 286.902 1706.67 293.289 1706.67 301.144C1706.67 309 1712.92 314.791 1720.91 314.791V314.786L1728.36 314.777C1730.19 314.777 1732.05 315.734 1732.05 317.868C1732.05 320.001 1730.39 321.558 1728.36 321.558H1708.67V332.11H1729.29C1737.15 332.11 1743.54 325.723 1743.54 317.868C1743.54 310.012 1737.28 304.226 1729.29 304.226L1721.85 304.235C1720.01 304.235 1718.16 303.278 1718.16 301.14C1718.16 299.001 1719.81 297.449 1721.85 297.449L1750.78 297.468Z" fill="white"/>
</g>
<defs>
<clipPath id="clip0_165_317">
<rect width="1301.7" height="268" fill="white" transform="translate(182 189)"/>
</clipPath>
<clipPath id="clip1_165_317">
<rect width="314" height="198.59" fill="white" transform="translate(1585 204)"/>
</clipPath>
</defs>
</svg>
